<?xml version="1.0" encoding="UTF-8"?>
<svg version="1.1" xmlns="http://www.w3.org/2000/svg" width="945" height="945">
<path d="M0 0 C311.85 0 623.7 0 945 0 C945 311.85 945 623.7 945 945 C633.15 945 321.3 945 0 945 C0 633.15 0 321.3 0 0 Z " fill="#EEEEEE" transform="translate(0,0)"/>
<path d="M0 0 C311.85 0 623.7 0 945 0 C945 311.85 945 623.7 945 945 C633.15 945 321.3 945 0 945 C0 633.15 0 321.3 0 0 Z M414.3125 52.1875 C413.24675751 52.35031464 413.24675751 52.35031464 412.15948486 52.51641846 C389.95399575 55.935929 368.3449509 60.96586845 347 68 C345.73929687 68.41137207 345.73929687 68.41137207 344.453125 68.83105469 C313.07802792 79.15375762 282.84335683 93.2132904 255 111 C253.98292969 111.6489624 253.98292969 111.6489624 252.9453125 112.31103516 C235.62923828 123.44585264 218.61208929 135.75465207 203.4765625 149.734375 C202.13019676 150.96606606 200.77638276 152.19054017 199.38745117 153.37402344 C193.227017 158.63346089 187.50618153 164.30769935 181.7824707 170.03222656 C180.07456944 171.73794598 178.35881955 173.43549027 176.64257812 175.1328125 C169.96063436 181.78095146 163.85998118 188.60838969 158 196 C157.02992982 197.14855581 156.05324119 198.29159722 155.06640625 199.42578125 C148.52988075 206.96165074 142.64000402 214.77630699 137 223 C136.3181665 223.98299072 136.3181665 223.98299072 135.62255859 224.98583984 C105.25264482 268.87896051 83.38368338 317.83658179 72 370 C71.6599292 371.51787109 71.6599292 371.51787109 71.31298828 373.06640625 C68.13552513 387.27313658 65.502212 401.51150928 64 416 C63.90356201 416.92417725 63.80712402 417.84835449 63.70776367 418.80053711 C62.69711312 430.37847065 62.81392947 441.995804 62.81469727 453.60864258 C62.81252764 457.26590927 62.79436801 460.9228652 62.77539062 464.58007812 C62.68099501 503.56332867 67.49506753 542.93620015 80 580 C80.70841822 582.41664178 81.41674728 584.83330971 82.125 587.25 C95.30903358 629.96088755 117.07336934 671.97916729 144.56640625 707.16503906 C146.01282056 709.01640996 147.44471633 710.87833691 148.875 712.7421875 C153.61094161 718.87988945 158.47033179 724.82417812 163.734375 730.5234375 C164.97164988 731.87590694 166.20146521 733.23599705 167.39160156 734.63012695 C172.51700778 740.62610535 178.03054655 746.21667906 183.60498047 751.7902832 C185.23827448 753.42575882 186.8633847 755.06907708 188.48828125 756.71289062 C194.29223247 762.54712343 200.18812645 768.00545144 206.65136719 773.11279297 C208.86154998 774.88875066 210.93630329 776.74488894 213 778.6875 C224.88052897 789.35442655 238.52241832 798.46804744 252 807 C252.7110791 807.45020508 253.4221582 807.90041016 254.15478516 808.36425781 C280.73962695 825.04337378 308.93517758 838.85577721 338.57128906 849.15380859 C340.64425545 849.87605442 342.70969518 850.61524534 344.7734375 851.36328125 C403.80261457 872.09778624 470.76769108 877.1305352 532.5 867.75 C533.23301331 867.64017792 533.96602661 867.53035583 534.72125244 867.41720581 C554.02295408 864.51377741 572.88073536 860.75357016 591.49072266 854.79345703 C594.40367047 853.87235561 597.3289956 852.99563442 600.25390625 852.11328125 C652.75494235 835.94532687 704.08585754 807.61524431 744.5234375 770.265625 C745.86980324 769.03393394 747.22361724 767.80945983 748.61254883 766.62597656 C754.772983 761.36653911 760.49381847 755.69230065 766.2175293 749.96777344 C767.92543056 748.26205402 769.64118045 746.56450973 771.35742188 744.8671875 C778.03806481 738.22027909 784.15175791 731.39975316 790 724 C790.86299676 722.97212114 791.73138541 721.94869602 792.609375 720.93359375 C856.73905591 646.15464101 885.35604624 548.78581835 884.51707458 421.76231384 C883.05304213 403.88900573 879.86454673 386.34266055 875.69189453 368.90722656 C875.06769238 366.28443222 874.47636922 363.65758261 873.90234375 361.0234375 C872.13482669 353.00560839 869.89401879 345.26042042 867.19921875 337.5078125 C866.13593597 334.39762377 865.21013745 331.28569525 864.3125 328.125 C858.23496458 308.31852998 849.25275767 289.4825475 840 271 C839.61521484 270.22253418 839.23042969 269.44506836 838.83398438 268.64404297 C825.79625759 242.43153834 808.81792509 218.35116376 790 196 C789.59768158 195.51616852 789.19536316 195.03233704 788.78085327 194.53384399 C781.35818453 185.61803697 773.53916486 177.22239741 765.30883789 169.0480957 C763.42811472 167.17816859 761.55843181 165.29767362 759.68945312 163.41601562 C752.76281708 156.48180886 745.6943804 150.0810818 738 144 C736.89782824 143.06562562 735.80151464 142.12423231 734.71484375 141.171875 C676.90160718 90.75808221 601.244634 61.68927884 526 51.1875 C525.20875732 51.07583496 524.41751465 50.96416992 523.60229492 50.84912109 C507.6651902 48.77489906 491.67768075 48.84236536 475.63623047 48.86962891 C471.87593574 48.87499866 468.1157599 48.86965047 464.35546875 48.86328125 C447.40031209 48.85661122 431.0964882 49.6021913 414.3125 52.1875 Z " fill="#000000" transform="translate(0,0)"/>
<path d="M0 0 C1.43762695 0.01305176 1.43762695 0.01305176 2.90429688 0.02636719 C32.14671184 0.36803924 61.76466437 5.73585787 90 13 C91.63316162 13.41354736 91.63316162 13.41354736 93.29931641 13.83544922 C167.89918797 32.9451698 233.14701546 73.25413688 287.375 127.25 C288.12426758 127.99459473 288.87353516 128.73918945 289.64550781 129.50634766 C294.30135488 134.17568692 298.71579077 138.98893422 303 144 C303.88908824 145.02103773 304.77839361 146.04188645 305.66796875 147.0625 C324.50648162 169.02616152 340.88994767 193.28029463 354.734375 218.67871094 C355.92323219 220.85919979 357.13162118 223.02770459 358.34375 225.1953125 C368.8473842 244.22857474 376.9763477 264.45776216 384 285 C384.59216309 286.69878296 384.59216309 286.69878296 385.19628906 288.43188477 C388.27270087 297.40944576 390.80314696 306.45474088 393 315.6875 C393.2547963 316.7505687 393.2547963 316.7505687 393.51473999 317.83511353 C396.92635558 332.12783434 399.83670045 346.46061465 402 361 C402.16371094 362.05832031 402.32742188 363.11664063 402.49609375 364.20703125 C407.93430325 401.0160691 407.59389446 441.23433137 402 478 C401.80378622 479.36315182 401.60851675 480.72643982 401.4140625 482.08984375 C398.31083853 503.59570892 393.44737189 524.26298124 387 545 C386.63503418 546.19093262 386.27006836 547.38186523 385.89404297 548.60888672 C381.03855586 564.31987131 375.15857384 579.35522251 368.25634766 594.27734375 C367.14440391 596.68705939 366.0572263 599.10567744 364.98046875 601.53125 C351.65694202 631.1979774 333.03384298 658.99994039 312.5 684.125 C311.94666992 684.80385254 311.39333984 685.48270508 310.82324219 686.18212891 C307.02581806 690.81375212 303.12801483 695.33177381 299.07421875 699.7421875 C297.725524 701.21025825 296.39365267 702.69402688 295.08203125 704.1953125 C289.92240147 710.08347802 284.46297928 715.64348827 278.9375 721.1875 C278.18154541 721.94804688 277.42559082 722.70859375 276.64672852 723.4921875 C271.92615683 728.19992177 267.06517335 732.66705903 262 737 C261.03578125 737.845625 260.0715625 738.69125 259.078125 739.5625 C236.93422077 758.64785392 212.57060617 774.88206987 187 789 C186.20513184 789.44263184 185.41026367 789.88526367 184.59130859 790.34130859 C131.92228191 819.47848051 73.72643221 834.36374049 14 839 C12.79947998 839.0935376 11.59895996 839.1870752 10.36206055 839.28344727 C-17.08965641 841.27384455 -43.79808502 839.80746254 -71 836 C-71.66408875 835.90805359 -72.32817749 835.81610718 -73.01239014 835.72137451 C-113.16672576 830.1239516 -151.5697514 819.31767292 -188.35791016 802.22412109 C-190.7334559 801.12349401 -193.11879438 800.05042743 -195.51171875 798.98828125 C-225.18645973 785.66712573 -252.99524477 767.03768054 -278.125 746.5 C-279.14327881 745.67000488 -279.14327881 745.67000488 -280.18212891 744.82324219 C-284.81375212 741.02581806 -289.33177381 737.12801483 -293.7421875 733.07421875 C-295.21025825 731.725524 -296.69402688 730.39365267 -298.1953125 729.08203125 C-304.08347802 723.92240147 -309.64348827 718.46297928 -315.1875 712.9375 C-315.94804687 712.18154541 -316.70859375 711.42559082 -317.4921875 710.64672852 C-322.19981893 705.92625996 -326.67002694 701.06767716 -331 696 C-331.88905358 694.97893209 -332.77835667 693.95808135 -333.66796875 692.9375 C-352.48064783 671.00395788 -368.88103507 646.7768872 -382.69140625 621.40283203 C-383.95579192 619.08117462 -385.24242009 616.77299358 -386.53125 614.46484375 C-405.03864522 580.84617309 -416.5115464 544.25722876 -425 507 C-425.22268555 506.03819824 -425.44537109 505.07639648 -425.67480469 504.08544922 C-430.7779842 481.74551086 -433.10840904 458.431465 -433.203125 435.53515625 C-433.21013931 434.39137512 -433.21715363 433.24759399 -433.22438049 432.06915283 C-433.2417765 428.40022796 -433.24823246 424.73146459 -433.25 421.0625 C-433.25067474 419.807789 -433.25134949 418.553078 -433.25204468 417.26034546 C-433.23613414 398.64664723 -432.81847042 380.42908945 -430 362 C-429.82307617 360.81132324 -429.64615234 359.62264648 -429.46386719 358.39794922 C-428.16909922 349.89250884 -426.65555844 341.44214835 -425 333 C-424.69352539 331.40937744 -424.69352539 331.40937744 -424.38085938 329.78662109 C-418.77085337 301.34923349 -408.94997725 273.37076208 -397 247 C-396.56864746 246.04383789 -396.13729492 245.08767578 -395.69287109 244.10253906 C-380.99106404 211.80043068 -361.9843506 181.09013652 -339 154 C-338.14114193 152.9681009 -337.28310767 151.93551573 -336.42578125 150.90234375 C-327.19502242 139.82177015 -317.42342406 129.34497928 -307.25 119.125 C-306.55310059 118.42342773 -305.85620117 117.72185547 -305.13818359 116.99902344 C-300.58768799 112.46254927 -295.87372435 108.18501859 -291 104 C-289.90535891 103.03877424 -288.81156265 102.07658525 -287.71875 101.11328125 C-247.30732049 65.81084213 -199.52320247 39.61028659 -149 22 C-147.81954102 21.58532471 -146.63908203 21.17064941 -145.42285156 20.7434082 C-136.34522233 17.62646982 -127.21218058 15.14470029 -117.875 12.9375 C-117.15666992 12.76602448 -116.43833984 12.59454895 -115.69824219 12.4178772 C-96.5161012 7.84391521 -77.52210122 4.4396674 -57.90869141 2.32470703 C-55.33360191 2.03724111 -52.76743034 1.71363053 -50.19921875 1.37109375 C-33.55187847 -0.7349272 -16.74394835 -0.24808964 0 0 Z M-73.6875 12.1875 C-74.75324249 12.35031464 -74.75324249 12.35031464 -75.84051514 12.51641846 C-98.04600425 15.935929 -119.6550491 20.96586845 -141 28 C-142.26070313 28.41137207 -142.26070313 28.41137207 -143.546875 28.83105469 C-174.92197208 39.15375762 -205.15664317 53.2132904 -233 71 C-234.01707031 71.6489624 -234.01707031 71.6489624 -235.0546875 72.31103516 C-252.37076172 83.44585264 -269.38791071 95.75465207 -284.5234375 109.734375 C-285.86980324 110.96606606 -287.22361724 112.19054017 -288.61254883 113.37402344 C-294.772983 118.63346089 -300.49381847 124.30769935 -306.2175293 130.03222656 C-307.92543056 131.73794598 -309.64118045 133.43549027 -311.35742188 135.1328125 C-318.03936564 141.78095146 -324.14001882 148.60838969 -330 156 C-330.97007018 157.14855581 -331.94675881 158.29159722 -332.93359375 159.42578125 C-339.47011925 166.96165074 -345.35999598 174.77630699 -351 183 C-351.6818335 183.98299072 -351.6818335 183.98299072 -352.37744141 184.98583984 C-382.74735518 228.87896051 -404.61631662 277.83658179 -416 330 C-416.3400708 331.51787109 -416.3400708 331.51787109 -416.68701172 333.06640625 C-419.86447487 347.27313658 -422.497788 361.51150928 -424 376 C-424.09643799 376.92417725 -424.19287598 377.84835449 -424.29223633 378.80053711 C-425.30288688 390.37847065 -425.18607053 401.995804 -425.18530273 413.60864258 C-425.18747236 417.26590927 -425.20563199 420.9228652 -425.22460938 424.58007812 C-425.31900499 463.56332867 -420.50493247 502.93620015 -408 540 C-407.29158178 542.41664178 -406.58325272 544.83330971 -405.875 547.25 C-392.69096642 589.96088755 -370.92663066 631.97916729 -343.43359375 667.16503906 C-341.98717944 669.01640996 -340.55528367 670.87833691 -339.125 672.7421875 C-334.38905839 678.87988945 -329.52966821 684.82417812 -324.265625 690.5234375 C-323.02835012 691.87590694 -321.79853479 693.23599705 -320.60839844 694.63012695 C-315.48299222 700.62610535 -309.96945345 706.21667906 -304.39501953 711.7902832 C-302.76172552 713.42575882 -301.1366153 715.06907708 -299.51171875 716.71289062 C-293.70776753 722.54712343 -287.81187355 728.00545144 -281.34863281 733.11279297 C-279.13845002 734.88875066 -277.06369671 736.74488894 -275 738.6875 C-263.11947103 749.35442655 -249.47758168 758.46804744 -236 767 C-235.2889209 767.45020508 -234.5778418 767.90041016 -233.84521484 768.36425781 C-207.26037305 785.04337378 -179.06482242 798.85577721 -149.42871094 809.15380859 C-147.35574455 809.87605442 -145.29030482 810.61524534 -143.2265625 811.36328125 C-84.19738543 832.09778624 -17.23230892 837.1305352 44.5 827.75 C45.23301331 827.64017792 45.96602661 827.53035583 46.72125244 827.41720581 C66.02295408 824.51377741 84.88073536 820.75357016 103.49072266 814.79345703 C106.40367047 813.87235561 109.3289956 812.99563442 112.25390625 812.11328125 C164.75494235 795.94532687 216.08585754 767.61524431 256.5234375 730.265625 C257.86980324 729.03393394 259.22361724 727.80945983 260.61254883 726.62597656 C266.772983 721.36653911 272.49381847 715.69230065 278.2175293 709.96777344 C279.92543056 708.26205402 281.64118045 706.56450973 283.35742188 704.8671875 C290.03806481 698.22027909 296.15175791 691.39975316 302 684 C302.86299676 682.97212114 303.73138541 681.94869602 304.609375 680.93359375 C368.73905591 606.15464101 397.35604624 508.78581835 396.51707458 381.76231384 C395.05304213 363.88900573 391.86454673 346.34266055 387.69189453 328.90722656 C387.06769238 326.28443222 386.47636922 323.65758261 385.90234375 321.0234375 C384.13482669 313.00560839 381.89401879 305.26042042 379.19921875 297.5078125 C378.13593597 294.39762377 377.21013745 291.28569525 376.3125 288.125 C370.23496458 268.31852998 361.25275767 249.4825475 352 231 C351.61521484 230.22253418 351.23042969 229.44506836 350.83398438 228.64404297 C337.79625759 202.43153834 320.81792509 178.35116376 302 156 C301.59768158 155.51616852 301.19536316 155.03233704 300.78085327 154.53384399 C293.35818453 145.61803697 285.53916486 137.22239741 277.30883789 129.0480957 C275.42811472 127.17816859 273.55843181 125.29767362 271.68945312 123.41601562 C264.76281708 116.48180886 257.6943804 110.0810818 250 104 C248.89782824 103.06562562 247.80151464 102.12423231 246.71484375 101.171875 C188.90160718 50.75808221 113.244634 21.68927884 38 11.1875 C37.20875732 11.07583496 36.41751465 10.96416992 35.60229492 10.84912109 C19.6651902 8.77489906 3.67768075 8.84236536 -12.36376953 8.86962891 C-16.12406426 8.87499866 -19.8842401 8.86965047 -23.64453125 8.86328125 C-40.59968791 8.85661122 -56.9035118 9.6021913 -73.6875 12.1875 Z " fill="#1A1C26" transform="translate(488,40)"/>
<path d="M0 0 C7.92 0 15.84 0 24 0 C24.76441406 2.21847656 25.52882813 4.43695313 26.31640625 6.72265625 C33.476818 27.40962507 41.0755982 47.88750435 49.0178833 68.28575134 C51.53372096 74.76186941 53.99247239 81.2585777 56.4375 87.76171875 C57.17529925 89.71918521 57.91317286 91.67662364 58.65112305 93.6340332 C59.72772271 96.49022873 60.80210751 99.34715135 61.86929321 102.20687866 C62.85064893 104.83562133 63.84044944 107.46103859 64.83203125 110.0859375 C65.12404419 110.87558395 65.41605713 111.66523041 65.71691895 112.47880554 C66.96777297 116.46101347 66.96777297 116.46101347 70 119 C70.21281616 118.20323853 70.21281616 118.20323853 70.42993164 117.39038086 C72.60400627 109.69646192 75.52763065 102.33102217 78.49462891 94.91888428 C79.80729552 91.6383224 81.10946616 88.3536214 82.41262817 85.0692749 C83.49401445 82.34446627 84.57684801 79.62023527 85.65966797 76.89599609 C89.52117731 67.17376208 93.35968029 57.44248713 97.18826294 47.70724487 C98.05040164 45.51712816 98.91402543 43.32759537 99.77926636 41.13870239 C105.16262593 27.51957977 110.25007214 13.85395624 115 0 C122.92 0 130.84 0 139 0 C140.40110748 9.44289588 141.57255761 18.85805774 142.51220703 28.3581543 C142.65019319 29.73154047 142.78842506 31.10490197 142.92687988 32.47824097 C143.29739087 36.16163416 143.66411793 39.84539407 144.02979517 43.52926993 C144.33695735 46.62079586 144.64583598 49.71214947 144.95463836 52.80351192 C145.68338634 60.09992708 146.40883476 67.39666522 147.13232422 74.69360352 C147.87588881 82.1922887 148.62570596 89.69033074 149.37846863 97.18809766 C150.02783472 103.65860101 150.67298477 110.12951577 151.3148793 116.60076457 C151.69690322 120.45151582 152.08053761 124.30208872 152.4683876 128.15225792 C152.83274771 131.77081062 153.19180797 135.38985227 153.54696655 139.00931931 C153.73895852 140.95285638 153.93624926 142.89586779 154.13375854 144.83885193 C154.82379939 151.9326653 155.12067769 158.87247076 155 166 C149.06 166 143.12 166 137 166 C135.93840754 155.67061145 134.91681966 145.34530992 134.0703125 134.99609375 C133.99411179 134.06489716 133.91791107 133.13370056 133.83940125 132.17428589 C133.68229609 130.25108623 133.52528945 128.32787853 133.36837769 126.40466309 C131.76573106 106.86583849 129.81359755 87.40152655 127.47021484 67.93896484 C126.69959454 61.48351935 125.97239511 55.0235112 125.25 48.5625 C125.12230225 47.44198242 124.99460449 46.32146484 124.86303711 45.16699219 C124.74839111 44.14379883 124.63374512 43.12060547 124.515625 42.06640625 C124.36528809 40.7352478 124.36528809 40.7352478 124.21191406 39.37719727 C124 37 124 37 124 33 C120.88551364 34.55724318 120.59270598 37.08057095 119.33984375 40.27734375 C119.0784108 40.93795303 118.81697784 41.59856232 118.54762268 42.27919006 C117.97503816 43.72815794 117.40560184 45.17837275 116.83886719 46.62963867 C115.60512884 49.78850341 114.35637099 52.94136029 113.10842896 56.09463501 C112.44204743 57.77872467 111.77643643 59.4631194 111.11154175 61.14779663 C107.65234475 69.90561551 104.11613343 78.63172593 100.57348633 87.35604858 C92.64768173 106.87697003 84.80545692 126.4306928 77 146 C71.06 146 65.12 146 59 146 C52.25011782 129.24201107 45.65136833 112.43273567 39.1875 95.5625 C38.31812525 93.29635165 37.44865795 91.03023881 36.57910156 88.76416016 C34.85763348 84.27721053 33.13726604 79.78984083 31.41748047 75.30224609 C29.54946384 70.42963011 27.6757929 65.55922855 25.79804993 60.69035339 C24.56188789 57.48445623 23.32822205 54.2776026 22.09512329 51.07052612 C21.53533442 49.61626365 20.97445575 48.16242017 20.41244507 46.70901489 C19.6521139 44.7420656 18.89583655 42.77360695 18.140625 40.8046875 C17.72329102 39.72171387 17.30595703 38.63874023 16.87597656 37.52294922 C16 35 16 35 16 33 C15.01 33 14.02 33 13 33 C12.95464111 33.76481689 12.90928223 34.52963379 12.86254883 35.31762695 C12.21219556 45.33510653 11.13805953 55.28363236 10.01629639 65.25732422 C7.64963457 86.34859957 5.60395852 107.45913733 3.68281555 128.59487915 C2.54372516 141.07190483 1.27242914 153.53597815 0 166 C-5.94 166 -11.88 166 -18 166 C-17.48020985 160.89572534 -16.95950282 155.79154853 -16.4375 150.6875 C-16.3524118 149.85546051 -16.26732361 149.02342102 -16.17965698 148.16616821 C-14.9198754 135.85907122 -13.64188972 123.55392925 -12.3515625 111.25 C-12.20535786 109.85528618 -12.05915836 108.46057182 -11.91296387 107.06585693 C-11.31109737 101.32466201 -10.70920725 95.58346977 -10.1060791 89.84240723 C-8.53382615 74.87268438 -6.97574431 59.9022668 -5.5078125 44.921875 C-5.33653084 43.17932182 -5.33653084 43.17932182 -5.16178894 41.40156555 C-4.63350089 36.0192485 -4.11084666 30.63648616 -3.59790039 25.25268555 C-3.41308179 23.3546395 -3.22811381 21.45660798 -3.04296875 19.55859375 C-2.96615875 18.72934387 -2.88934875 17.90009399 -2.81021118 17.04571533 C-2.23365649 11.20358363 -1.16554874 5.82774372 0 0 Z " fill="#1A1B25" transform="translate(486,375)"/>
<path d="M0 0 C6.93 0 13.86 0 21 0 C21.04539821 13.50980819 21.0820004 27.01956472 21.10362434 40.5294323 C21.11400891 46.80431861 21.12806947 53.07914948 21.15087891 59.35400391 C21.17279892 65.42298036 21.18460855 71.49190388 21.18975449 77.5609169 C21.19341616 79.86265011 21.20056515 82.16438082 21.21146011 84.46609116 C21.25938636 95.02239431 21.27297859 105.52423464 20.15185547 116.03173828 C20.07938158 116.72398939 20.00690769 117.4162405 19.93223763 118.12946892 C18.10780775 132.90335685 10.96083661 146.85690041 -0.59375 156.37109375 C-18.37904874 168.41081709 -39.35728056 170.50113503 -60.35839844 167.68359375 C-64.11461255 166.9070959 -67.52891486 165.60649616 -71 164 C-71.88042969 163.63777344 -72.76085937 163.27554688 -73.66796875 162.90234375 C-85.32992094 157.69769035 -93.18273217 148.75585809 -98.25 137.1328125 C-99.26606447 134.43575903 -100.1863437 131.76488895 -101 129 C-101.34231659 127.86816284 -101.68463318 126.73632568 -102.037323 125.57019043 C-103.38627474 120.09807833 -103.26392563 114.68300745 -103.22705078 109.07617188 C-103.22734283 107.9045752 -103.22763489 106.73297852 -103.22793579 105.52587891 C-103.22654825 101.6734259 -103.2110139 97.821169 -103.1953125 93.96875 C-103.19158033 91.2897509 -103.18863587 88.61076251 -103.18673706 85.9317627 C-103.18053839 79.61378708 -103.16414958 73.29588125 -103.14403808 66.97793627 C-103.12162866 59.78079959 -103.11067301 52.58365946 -103.10064721 45.38649654 C-103.07978179 30.59096128 -103.04423119 15.79548417 -103 1 C-96.4 1 -89.8 1 -83 1 C-82.98786972 3.15323792 -82.98786972 3.15323792 -82.97549438 5.34997559 C-82.89796763 18.88641486 -82.81032766 32.42276104 -82.71247292 45.9590683 C-82.66242449 52.91800251 -82.61598094 59.8769254 -82.578125 66.8359375 C-82.54157319 73.55333025 -82.49484167 80.27058213 -82.44193649 86.98786926 C-82.42342194 89.54903456 -82.40830317 92.11022676 -82.39665604 94.6714325 C-82.37974361 98.2622053 -82.35069566 101.85269223 -82.31884766 105.44335938 C-82.31668747 106.49928284 -82.31452728 107.5552063 -82.31230164 108.64312744 C-82.18619725 119.79287119 -79.54428344 130.4752538 -72.14453125 139.18359375 C-60.9732427 149.55215498 -48.1067574 149.6651641 -33.67529297 149.17919922 C-24.7597174 148.58200699 -16.3000492 145.48703696 -10 139 C-3.59650154 131.11989574 0.13123785 122.18243426 0.12025452 111.95695496 C0.12162918 110.96562561 0.12300385 109.97429626 0.12442017 108.95292664 C0.12082489 107.87686661 0.11722961 106.80080658 0.11352539 105.69213867 C0.11367142 104.55024078 0.11381744 103.4083429 0.1139679 102.23184204 C0.11327168 98.46053157 0.10549285 94.68927059 0.09765625 90.91796875 C0.09579104 88.30194628 0.09436762 85.68592346 0.09336853 83.06990051 C0.09026356 76.88997222 0.08206141 70.71006167 0.07201904 64.53014117 C0.060832 57.49267671 0.05534093 50.45521138 0.05032361 43.41774023 C0.0398781 28.94515078 0.02209278 14.47257623 0 0 Z " fill="#1A1C26" transform="translate(413,374)"/>
<path d="M0 0 C3.76115969 2.06495042 7.09650288 4.08725592 9 8 C9.72393926 12.67432385 9.67541873 16.55413244 7 20.5625 C6.34 21.366875 5.68 22.17125 5 23 C5.60328125 23.43570312 6.2065625 23.87140625 6.828125 24.3203125 C12.57348873 28.60153515 16.68384458 32.05153374 19 39 C19.08481773 41.58630224 19.11598229 44.14478056 19.09765625 46.73046875 C19.0962413 47.48088943 19.09482635 48.23131012 19.09336853 49.00447083 C19.0877756 51.3988546 19.07522444 53.79314453 19.0625 56.1875 C19.05748408 57.81184761 19.05292134 59.43619668 19.04882812 61.06054688 C19.03780848 65.04040069 19.02054873 69.02018444 19 73 C17.35 73 15.7 73 14 73 C14 85.87 14 98.74 14 112 C2.78 112 -8.44 112 -20 112 C-20 99.13 -20 86.26 -20 73 C-21.65 73 -23.3 73 -25 73 C-25.12439375 68.16204012 -25.2147079 63.32502819 -25.2746582 58.48583984 C-25.29967054 56.84277106 -25.33369226 55.19981206 -25.37719727 53.55712891 C-25.80245895 37.07698795 -25.80245895 37.07698795 -21.38793945 31.39794922 C-18.17329489 28.16012076 -14.80726909 25.5381794 -11 23 C-11.639375 22.21625 -12.27875 21.4325 -12.9375 20.625 C-15.54057634 17.31199375 -16.21128791 15.87787932 -15.9375 11.75 C-15.39230334 7.24304097 -13.88627403 5.09311219 -10.5703125 2.09375 C-7.19126423 -0.25981596 -3.98096902 -0.39029108 0 0 Z " fill="#1E2029" transform="translate(182,404)"/>
<path d="M0 0 C3.1875 1.8125 3.1875 1.8125 6 4 C6.8971875 4.61875 6.8971875 4.61875 7.8125 5.25 C9.831781 8.22578253 10.12595609 11.49311715 10 15 C8.69242902 18.36232538 7.54050545 20.45949455 5 23 C5.53109375 23.37511719 6.0621875 23.75023437 6.609375 24.13671875 C11.87899771 27.95431038 16.58971994 31.76816597 19 38 C19.1683504 40.71894955 19.23294575 43.33103955 19.1953125 46.046875 C19.1924826 46.81807678 19.18965271 47.58927856 19.18673706 48.3838501 C19.17557013 50.83939332 19.15047229 53.2945676 19.125 55.75 C19.11496568 57.41796347 19.10584061 59.08593268 19.09765625 60.75390625 C19.07564225 64.83607897 19.04113667 68.917977 19 73 C17.35 73 15.7 73 14 73 C14 85.87 14 98.74 14 112 C2.78 112 -8.44 112 -20 112 C-20 99.13 -20 86.26 -20 73 C-21.65 73 -23.3 73 -25 73 C-25.09954745 68.30442353 -25.17178467 63.60947337 -25.21972656 58.91308594 C-25.23973053 57.31857592 -25.26694301 55.72413822 -25.30175781 54.12988281 C-25.68289065 36.21663948 -25.68289065 36.21663948 -19.18359375 28.9765625 C-18.60738281 28.53054688 -18.03117188 28.08453125 -17.4375 27.625 C-16.85871094 27.16351563 -16.27992188 26.70203125 -15.68359375 26.2265625 C-14.15130921 25.11023455 -12.57740673 24.05160449 -11 23 C-11.66 22.195625 -12.32 21.39125 -13 20.5625 C-15.25706629 17.14049627 -15.64173911 14.24032571 -15.45703125 10.18359375 C-14.52599471 5.73530808 -11.71569538 3.21759027 -8.0625 0.625 C-5.15227888 -0.25688519 -3.03383286 -0.36405994 0 0 Z " fill="#1E202A" transform="translate(767,404)"/>
<path d="M0 0 C3.60144146 2.14553959 5.4672924 4.14134139 7 8 C8.2912537 20.37591204 5.48083127 31.05489491 -2 41 C-5.44733603 44.67881183 -8.567946 46.2857458 -13.625 46.5625 C-17.84281862 46.30382629 -20.12917548 45.21880325 -23 42 C-26.71062005 34.34357976 -25.75062321 25.31781314 -23.0390625 17.44921875 C-20.29178355 10.9734898 -17.05386258 4.59550529 -10.92578125 0.77734375 C-7.271442 -0.69773437 -3.8375898 -0.78479791 0 0 Z " fill="#EAEAEA" transform="translate(470,739)"/>
<path d="M0 0 C2.36497439 1.86708505 3.66030715 3.32061431 5 6 C5.084915 7.8863912 5.107193 9.77578515 5.09765625 11.6640625 C5.09443359 12.78554688 5.09121094 13.90703125 5.08789062 15.0625 C5.07951172 16.238125 5.07113281 17.41375 5.0625 18.625 C5.05798828 19.80835938 5.05347656 20.99171875 5.04882812 22.2109375 C5.03701478 25.14064639 5.0190789 28.07032941 5 31 C-0.28 31 -5.56 31 -11 31 C-11 25.39 -11 19.78 -11 14 C-12.98 14 -14.96 14 -17 14 C-17 22.25 -17 30.5 -17 39 C-17.99 39 -18.98 39 -20 39 C-20.14628834 34.83370795 -20.23440421 30.66808403 -20.3125 26.5 C-20.35439453 25.32695312 -20.39628906 24.15390625 -20.43945312 22.9453125 C-20.54229805 15.62275364 -19.94964856 10.59396015 -15 5 C-10.22774206 0.56861763 -6.51802781 -0.57175683 0 0 Z " fill="#E7E7E8" transform="translate(767,432)"/>
<path d="M0 0 C3.1943196 2.35370918 4.29646088 4.17702704 5 8 C5.07991104 9.80581755 5.10769823 11.61431809 5.09765625 13.421875 C5.09443359 14.44667969 5.09121094 15.47148437 5.08789062 16.52734375 C5.07951172 17.59082031 5.07113281 18.65429688 5.0625 19.75 C5.05798828 20.82894531 5.05347656 21.90789062 5.04882812 23.01953125 C5.03705742 25.67971125 5.01912239 28.33986269 5 31 C-0.28 31 -5.56 31 -11 31 C-11 25.39 -11 19.78 -11 14 C-12.98 14 -14.96 14 -17 14 C-17 22.25 -17 30.5 -17 39 C-17.99 39 -18.98 39 -20 39 C-20.08765069 34.97930575 -20.14061018 30.9588599 -20.1875 26.9375 C-20.21263672 25.80376953 -20.23777344 24.67003906 -20.26367188 23.50195312 C-20.32705711 16.25490821 -20.24635555 10.70379656 -15.28125 5.0390625 C-14.6934375 4.57242187 -14.105625 4.10578125 -13.5 3.625 C-12.9121875 3.14289063 -12.324375 2.66078125 -11.71875 2.1640625 C-7.96959083 -0.37514076 -4.3939278 -0.38543226 0 0 Z " fill="#E9E9EA" transform="translate(182,432)"/>
<path d="M0 0 C0.66 0 1.32 0 2 0 C4.00865708 6.50422293 5.38614349 12.1781317 5 19 C6.32 18.67 7.64 18.34 9 18 C7.61423347 20.77153305 5.65868859 21.48074938 3 23 C2.01 23.66 1.02 24.32 0 25 C-2.875 25.4375 -2.875 25.4375 -6 25 C-8.875 22.5 -8.875 22.5 -11 20 C-11.639375 20.639375 -12.27875 21.27875 -12.9375 21.9375 C-16.89475654 24.60259114 -20.24942821 25.33616709 -25 25 C-27.625 23.625 -27.625 23.625 -29 21 C-29.78104875 16.37016884 -28.71068266 13.10601911 -26.1953125 9.19140625 C-20.65970165 2.43949337 -20.65970165 2.43949337 -16.625 1.37109375 C-14.4375 1.375 -14.4375 1.375 -11 2 C-10.66601049 5.59038724 -10.72859577 7.53318472 -12.5625 10.6875 C-16.19134752 14.13025278 -19.96241352 16 -25 16 C-24.34 17.98 -23.68 19.96 -23 22 C-16.17182166 21.4644566 -13.19255993 19.37557229 -8.61328125 14.4140625 C-7.47439453 13.03347656 -7.47439453 13.03347656 -6.3125 11.625 C-5.16201172 10.25214844 -5.16201172 10.25214844 -3.98828125 8.8515625 C-1.95944389 5.94183505 -0.93853642 3.40282188 0 0 Z " fill="#33353D" transform="translate(468,152)"/>
<path d="M0 0 C3.60144146 2.14553959 5.4672924 4.14134139 7 8 C8.2912537 20.37591204 5.48083127 31.05489491 -2 41 C-5.44733603 44.67881183 -8.567946 46.2857458 -13.625 46.5625 C-17.84281862 46.30382629 -20.12917548 45.21880325 -23 42 C-26.71062005 34.34357976 -25.75062321 25.31781314 -23.0390625 17.44921875 C-20.29178355 10.9734898 -17.05386258 4.59550529 -10.92578125 0.77734375 C-7.271442 -0.69773437 -3.8375898 -0.78479791 0 0 Z M-11.5859375 4.21484375 C-17.60696575 11.8159761 -20.28322531 21.04241919 -20.3125 30.625 C-20.32925781 31.89601563 -20.34601563 33.16703125 -20.36328125 34.4765625 C-19.95098347 38.47540767 -18.86148605 41.13851395 -16 44 C-12.22509651 44.51475957 -10.54957497 44.40212803 -7.4375 42.125 C-0.15284099 32.78569357 3.75472978 21.01017693 3.27734375 9.1328125 C2.86939588 5.9956359 2.25186981 4.25186981 0 2 C-4.87213865 0.3453114 -7.78216999 0.56363377 -11.5859375 4.21484375 Z " fill="#252630" transform="translate(470,739)"/>
<path d="M0 0 C3.96 0 7.92 0 12 0 C12 2.97 12 5.94 12 9 C10.02 9 8.04 9 6 9 C6 19.89 6 30.78 6 42 C3.36 42 0.72 42 -2 42 C-2 30.78 -2 19.56 -2 8 C-1.34 8 -0.68 8 0 8 C0 5.36 0 2.72 0 0 Z " fill="#E6E6E7" transform="translate(170,468)"/>
<path d="M0 0 C3.63 0 7.26 0 11 0 C11 2.97 11 5.94 11 9 C9.02 9 7.04 9 5 9 C5 19.89 5 30.78 5 42 C2.36 42 -0.28 42 -3 42 C-3 31.11 -3 20.22 -3 9 C-2.01 9 -1.02 9 0 9 C0 6.03 0 3.06 0 0 Z " fill="#EBEBEB" transform="translate(756,468)"/>
<path d="M0 0 C3.21679658 2.56030748 4.53289158 4.04277713 5.47265625 7.98046875 C6.17192615 17.82403733 0.67716154 26.83566573 -5.3515625 34.16015625 C-6.85081696 35.83349476 -8.38983224 37.4337459 -10 39 C-4.87080814 41.10428384 -0.4389165 41.21755666 5 41 C3.125 44.875 3.125 44.875 2 46 C-3.68827015 46.40630501 -7.8165872 45.63635519 -13.1171875 43.55859375 C-15.06452057 42.74761786 -15.06452057 42.74761786 -17 44 C-19.3329866 44.04022391 -21.66706666 44.04320247 -24 44 C-24.5625 42.0625 -24.5625 42.0625 -25 40 C-23.40801469 38.40801469 -21.57539557 38.96076702 -19.375 38.9375 C-15.12539448 38.53739449 -13.07026098 37.73162797 -10.1875 34.5625 C-3.97349366 26.39928884 0.13245834 17.3312787 0.36328125 7.05078125 C-0.09797175 4.44693366 -0.88974852 3.5567429 -3 2 C-6.05270463 1.84188612 -6.05270463 1.84188612 -9 3 C-12.41700069 6.88831113 -12.57868604 11.02849521 -13 16 C-14.32 15.34 -15.64 14.68 -17 14 C-16.63074596 7.84576594 -15.17122773 5.27296499 -11 1 C-7.49156125 -0.75421937 -3.81935505 -0.67167968 0 0 Z " fill="#2F313A" transform="translate(502,739)"/>
<path d="M0 0 C3.0625 1.75 3.0625 1.75 5 5 C6.79253649 14.11435863 4.0124898 21.44582345 -1 29 C-3.83374697 32.51108161 -6.81740364 35.80325877 -10 39 C-6.24058364 40.3839011 -3.1347272 41.24650688 0.875 41.125 C1.65617187 41.10695313 2.43734375 41.08890625 3.2421875 41.0703125 C3.82226562 41.04710937 4.40234375 41.02390625 5 41 C4.01 43.475 4.01 43.475 3 46 C-2.87677735 46.32648763 -7.33913233 45.49488425 -12.8984375 43.55859375 C-15.03601199 42.74218642 -15.03601199 42.74218642 -17 44 C-19.3329866 44.04022391 -21.66706666 44.04320247 -24 44 C-24 42.35 -24 40.7 -24 39 C-23.29875 39.05542969 -22.5975 39.11085938 -21.875 39.16796875 C-17.26436382 39.19929101 -14.16534146 39.06205869 -10.6640625 35.87109375 C-8.53719896 33.00675454 -6.73503846 30.11678854 -5 27 C-4.20722656 25.61941406 -4.20722656 25.61941406 -3.3984375 24.2109375 C-0.10104832 17.81879199 0.88345662 12.15599861 0 5 C-0.33 4.34 -0.66 3.68 -1 3 C-3.64 3 -6.28 3 -9 3 C-11.44697666 7.36200187 -12.50269348 11.02693484 -13 16 C-13.99 15.67 -14.98 15.34 -16 15 C-16.66964286 7.23214286 -16.66964286 7.23214286 -13.625 3.5625 C-9.38814729 -0.57347527 -5.74892845 -0.81277954 0 0 Z " fill="#262831" transform="translate(433,739)"/>
<path d="M0 0 C-0.875 3.875 -0.875 3.875 -2 5 C-5.99102718 5.4638066 -9.99210968 5.70468177 -14 6 C-15.65 10.95 -17.3 15.9 -19 21 C-17.47375 20.896875 -15.9475 20.79375 -14.375 20.6875 C-10.85583212 20.71249409 -8.31520289 20.86067831 -5.375 22.875 C-2.48546482 26.67701997 -2.24062568 28.82579157 -2.546875 33.49609375 C-3.46676273 38.57926644 -5.38448413 41.80759543 -9.625 44.9375 C-14.16920041 46.36808161 -18.28017276 46.72052251 -23 46 C-26.22232377 43.95657517 -26.80678272 42.6182953 -27.9375 39 C-28 36 -28 36 -26.5625 33.625 C-26.046875 33.08875 -25.53125 32.5525 -25 32 C-24.01 32.33 -23.02 32.66 -22 33 C-22.495 33.495 -22.495 33.495 -23 34 C-23.26293056 38.03160191 -23.29404844 39.55892734 -21 43 C-17.58500409 43.66707548 -17.58500409 43.66707548 -14 43 C-10.39112471 40.15088793 -9.69538931 37.32560868 -9.125 32.9375 C-8.78537904 29.38243546 -8.77858875 26.90743532 -11 24 C-13.41679707 23.29823412 -13.41679707 23.29823412 -16.125 23.25 C-17.03507813 23.19328125 -17.94515625 23.1365625 -18.8828125 23.078125 C-19.93082031 23.03945313 -19.93082031 23.03945313 -21 23 C-20.566347 16.495205 -19.83439147 5.83439147 -15 1 C-13.23501627 0.76369639 -11.46206484 0.58557627 -9.6875 0.4375 C-8.72199219 0.35371094 -7.75648438 0.26992188 -6.76171875 0.18359375 C-4.5119476 0.03403329 -2.25473692 0 0 0 Z " fill="#24262F" transform="translate(538,739)"/>
<path d="M0 0 C1.134375 0.20625 2.26875 0.4125 3.4375 0.625 C3.77148951 4.21538724 3.70890423 6.15818472 1.875 9.3125 C-1.75384752 12.75525278 -5.52491352 14.625 -10.5625 14.625 C-9.9025 16.605 -9.2425 18.585 -8.5625 20.625 C-2.93708159 20.17496653 0.05237125 18.94058515 4.4375 15.625 C4.4375 16.615 4.4375 17.605 4.4375 18.625 C-5.35118863 24.71573959 -5.35118863 24.71573959 -10.5625 23.625 C-13 22.1875 -13 22.1875 -14.5625 19.625 C-15.37091999 15.00948585 -14.26290306 11.71502122 -11.7578125 7.81640625 C-5.34164774 -0.00953866 -5.34164774 -0.00953866 0 0 Z " fill="#33353D" transform="translate(453.5625,153.375)"/>
<path d="M0 0 C0.99 0 1.98 0 3 0 C2.40165275 4.14298667 0.99335715 7.18194377 -1.0625 10.8125 C-1.61035156 11.78832031 -2.15820312 12.76414063 -2.72265625 13.76953125 C-3.14417969 14.50558594 -3.56570313 15.24164063 -4 16 C-0.7 16 2.6 16 6 16 C6 16.33 6 16.66 6 17 C2.37 17.33 -1.26 17.66 -5 18 C-6.77816332 22.4454083 -7.23418906 24.28115397 -7.125 28.8125 C-7.10695313 29.78832031 -7.08890625 30.76414063 -7.0703125 31.76953125 C-7.04710937 32.50558594 -7.02390625 33.24164063 -7 34 C-2.12637153 33.54663921 0.39042389 32.2910841 4 29 C2.48693872 33.23657158 -0.05978508 34.9927207 -4 37 C-7.875 36.75 -7.875 36.75 -11 36 C-11.12375 35.030625 -11.2475 34.06125 -11.375 33.0625 C-11.58125 32.051875 -11.7875 31.04125 -12 30 C-12.66 29.67 -13.32 29.34 -14 29 C-13.319375 27.4221875 -13.319375 27.4221875 -12.625 25.8125 C-11.37239999 22.89174547 -10.16489979 19.95705332 -9 17 C-9.66 16.67 -10.32 16.34 -11 16 C-10.01 16 -9.02 16 -8 16 C-7.79375 15.030625 -7.5875 14.06125 -7.375 13.0625 C-5.99046605 8.20169017 -3.35787645 3.76799876 0 0 Z " fill="#2C2E37" transform="translate(491,140)"/>
<path d="M0 0 C0.78375 0.144375 1.5675 0.28875 2.375 0.4375 C4.37325961 3.43488941 4.65050398 4.07097508 4.625 7.4375 C4.63015625 8.118125 4.6353125 8.79875 4.640625 9.5 C4.375 11.4375 4.375 11.4375 2.375 14.4375 C-3.07236842 13.95328947 -3.07236842 13.95328947 -5.5 11.6875 C-6.87363504 8.94022993 -7.15562116 7.46962094 -6.625 4.4375 C-4.57555398 1.6289999 -3.45494024 0.57582337 0 0 Z " fill="#E4E4E5" transform="translate(763.625,409.5625)"/>
<path d="M0 0 C2.19398856 3.29098284 2.21503664 3.84832581 1.75 7.5625 C1.66234375 8.34753906 1.5746875 9.13257813 1.484375 9.94140625 C1 12 1 12 -1 14 C-4.03839874 13.84418468 -5.56564458 13.37644136 -7.875 11.375 C-9.50823915 7.92705069 -8.94084486 5.62897301 -8 2 C-4.79191085 -0.1387261 -3.72301503 -0.47730962 0 0 Z " fill="#E5E5E5" transform="translate(181,410)"/>
<path d="M0 0 C2.13586678 3.20380017 2.23132175 4.01939967 2.125 7.6875 C2.10695313 8.49574219 2.08890625 9.30398437 2.0703125 10.13671875 C2.03550781 11.05904297 2.03550781 11.05904297 2 12 C1.01 12 0.02 12 -1 12 C-0.01 12.66 0.98 13.32 2 14 C1.34 14.66 0.68 15.32 0 16 C-4.55555556 15.44444444 -4.55555556 15.44444444 -6 14 C-6.04063832 12.33382885 -6.042721 10.66611905 -6 9 C-5.34 9 -4.68 9 -4 9 C-3.896875 8.2575 -3.79375 7.515 -3.6875 6.75 C-2.95746496 3.82985982 -1.93210602 2.26812446 0 0 Z " fill="#E5E5E5" transform="translate(467,159)"/>
<path d="M0 0 C-0.875 3.875 -0.875 3.875 -2 5 C-5.03722557 5.24479131 -8.07340606 5.38408365 -11.1171875 5.5234375 C-14.20285126 6.03353368 -15.1364761 6.56308413 -17 9 C-16.125 2.125 -16.125 2.125 -15 1 C-13.23501627 0.76369639 -11.46206484 0.58557627 -9.6875 0.4375 C-8.72199219 0.35371094 -7.75648438 0.26992188 -6.76171875 0.18359375 C-4.5119476 0.03403329 -2.25473692 0 0 0 Z " fill="#1E2029" transform="translate(538,739)"/>
<path d="M0 0 C5.28 0 10.56 0 16 0 C15.34 1.65 14.68 3.3 14 5 C8.01006953 5.3152595 4.36439644 4.68219822 -1 2 C-0.67 1.34 -0.34 0.68 0 0 Z " fill="#24262F" transform="translate(422,780)"/>
<path d="M0 0 C-0.08373482 2.84698394 -0.59110452 4.551161 -2.51953125 6.66796875 C-7.40721496 11 -7.40721496 11 -11 11 C-9.07216318 5.37714261 -6.48160071 0 0 0 Z " fill="#DCDCDD" transform="translate(455,155)"/>
<path d="M0 0 C0.66 0.66 1.32 1.32 2 2 C1.67176873 6.34906427 0.80260764 10.0342632 -1 14 C1.31 14 3.62 14 6 14 C6 14.66 6 15.32 6 16 C3.03 16 0.06 16 -3 16 C-2.48263876 10.39525319 -1.71036463 5.3591425 0 0 Z " fill="#44464E" transform="translate(520,746)"/>
<path d="M0 0 C0.66 0 1.32 0 2 0 C1.690625 0.825 1.38125 1.65 1.0625 2.5 C-0.11877583 6.39126155 -0.58224168 9.96166953 -1 14 C-2.32 13.34 -3.64 12.68 -5 12 C-4.58894145 6.75900345 -3.75960806 3.75960806 0 0 Z " fill="#262831" transform="translate(490,741)"/>
<path d="M0 0 C0 1.98 0 3.96 0 6 C-0.66 5.67 -1.32 5.34 -2 5 C-2 3.68 -2 2.36 -2 1 C-6.1117148 2.86896127 -8.87821668 4.77056898 -12 8 C-12.99 8.33 -13.98 8.66 -15 9 C-11.87289665 1.32438269 -7.82448066 -0.66309158 0 0 Z " fill="#22242E" transform="translate(457,154)"/>
<path d="M0 0 C0.66 0 1.32 0 2 0 C2 2.64 2 5.28 2 8 C4.475 8.99 4.475 8.99 7 10 C7 10.66 7 11.32 7 12 C4.32136078 12.21718696 2.58371852 12.35440053 0.25 10.9375 C-1.62103302 8.03739882 -1.81435814 5.40343405 -2 2 C-1.34 1.34 -0.68 0.68 0 0 Z " fill="#21232C" transform="translate(460,165)"/>
<path d="M0 0 C1.9375 0.375 1.9375 0.375 4 1 C4.33 1.66 4.66 2.32 5 3 C5.99 3.66 6.98 4.32 8 5 C7.34 5.66 6.68 6.32 6 7 C1.44444444 6.44444444 1.44444444 6.44444444 0 5 C-0.04063832 3.33382885 -0.042721 1.66611905 0 0 Z " fill="#D6D6D7" transform="translate(461,168)"/>
<path d="M0 0 C2.31 0 4.62 0 7 0 C7 1.65 7 3.3 7 5 C4.69 5 2.38 5 0 5 C0 3.35 0 1.7 0 0 Z " fill="#696A70" transform="translate(409,778)"/>
<path d="M0 0 C1.37432457 3.81756824 0.67975039 7.07255329 0 11 C-0.99 10.67 -1.98 10.34 -3 10 C-3.29296875 3.9453125 -3.29296875 3.9453125 -3 2 C-2.01 1.34 -1.02 0.68 0 0 Z " fill="#1E2029" transform="translate(420,744)"/>
<path d="M0 0 C0 0.33 0 0.66 0 1 C-1.670625 1.433125 -1.670625 1.433125 -3.375 1.875 C-7.00291092 2.69241329 -7.00291092 2.69241329 -9 5 C-9.99 5.33 -10.98 5.66 -12 6 C-9.44133307 -0.18344509 -6.46845654 -1.61711413 0 0 Z " fill="#464850" transform="translate(430,740)"/>
<path d="M0 0 C0.66 0.66 1.32 1.32 2 2 C1.625 5.625 1.625 5.625 1 9 C0.01 9 -0.98 9 -2 9 C-1.34 6.03 -0.68 3.06 0 0 Z " fill="#53555C" transform="translate(520,746)"/>
<path d="M0 0 C1.21236328 0.04060547 1.21236328 0.04060547 2.44921875 0.08203125 C3.06410156 0.11683594 3.67898438 0.15164063 4.3125 0.1875 C2.3125 2.1875 2.3125 2.1875 0 2.25 C-0.886875 2.229375 -1.77375 2.20875 -2.6875 2.1875 C-4.36093448 2.48499946 -6.03055915 2.80877066 -7.6875 3.1875 C-5.26849268 0.20484049 -3.789448 -0.16475861 0 0 Z " fill="#30323B" transform="translate(465.6875,738.8125)"/>
</svg>
